<svg xmlns="http://www.w3.org/2000/svg" width="32" height="28">
    <path fill="#666D89" fill-rule="evenodd" d="M16 24c-1.057 0-2.087-.082-3.086-.228-.684.833-3.628 3.704-6.753 4.216.004-.013-.161.012-.255.012-.501 0-.906-.405-.906-.906 0-.127.027-.248.074-.358h-.002C5.661 25.723 7 23.793 7 22c0-.029.008-.047.008-.074C2.779 19.766 0 16.127 0 12 0 5.373 7.163 0 16 0c8.836 0 16 5.373 16 12s-7.164 12-16 12zm0-22C8.28 2 2 6.486 2 12c0 3.207 2.212 6.252 5.918 8.145.669.341 1.09 1.03 1.09 1.781 0 .056-.003.12-.009.184-.02 1.034-.326 2.038-.716 2.932 1.44-.856 2.657-2.018 3.085-2.539.383-.467.952-.732 1.546-.732.096 0 .193.007.29.022.939.138 1.879.207 2.796.207 7.72 0 14-4.486 14-10S23.72 2 16 2zm0 4C10.673 6 6 8.804 6 12c0 .276-.224.5-.5.5S5 12.276 5 12c0-3.794 5.037-7 11-7 .276 0 .5.224.5.5 0 .277-.224.5-.5.5z"/>
</svg>
