<svg xmlns="http://www.w3.org/2000/svg" width="32" height="28">
    <path fill="#666D89" fill-rule="evenodd" d="M29.192 16.192l-11.053 10.93c-1.182 1.169-3.095 1.169-4.278 0L2.808 16.192c-3.741-3.701-3.741-9.7 0-13.4C6.439-.799 12.24-.874 16 2.505c3.761-3.379 9.562-3.304 13.192.287 3.741 3.7 3.741 9.699 0 13.4zm-1.427-11.99c-2.842-2.812-7.416-2.911-10.409-.222L16 5.199 14.644 3.98c-2.993-2.689-7.565-2.59-10.409.222-2.95 2.917-2.95 7.662 0 10.579l11.053 10.93c.391.389 1.032.389 1.425 0l11.052-10.93c2.951-2.917 2.951-7.662 0-10.579zM9.252 6.025h-.001c-1.794 0-3.249 1.454-3.249 3.245v.001c0 .276-.224.5-.5.5-.277 0-.5-.224-.5-.5 0-2.343 1.901-4.242 4.246-4.244l.004-.001c.276 0 .5.224.5.5s-.224.499-.5.499z"/>
</svg>
