<svg xmlns="http://www.w3.org/2000/svg" width="22" height="32">
    <path fill="#666D89" fill-rule="evenodd" d="M19 31.999l-16 .002c-1.657 0-3-1.343-3-3v-26C0 1.343 1.343 0 3 0h16c1.657 0 3 1.342 3 3v26c0 1.657-1.343 2.999-3 2.999zM20 3c0-.552-.448-1-1-1L3 2.001c-.552 0-1 .448-1 1v2L20 5V3zm0 3H2v19.997l18-.001V6zm0 20.996l-18 .001v2.004c0 .551.448 1 1 1l16-.002c.552 0 1-.448 1-.999v-2.004zm-8.5 2h-1c-.276 0-.5-.224-.5-.5 0-.277.224-.5.5-.5h1c.276 0 .5.223.5.5 0 .276-.224.5-.5.5zM9.5 3h3c.276 0 .5.223.5.5 0 .276-.224.5-.5.5h-3c-.276 0-.5-.224-.5-.5 0-.277.224-.5.5-.5z"/>
</svg>
