<svg xmlns="http://www.w3.org/2000/svg" width="32" height="31">
    <path fill="#666D89" fill-rule="evenodd" d="M31.881 11.557c-.277-.799-.988-1.384-1.843-1.511l-8.326-1.238-3.62-7.514C17.712.505 16.896 0 16 0c-.896 0-1.711.505-2.092 1.294l-3.619 7.514-8.327 1.238c-.856.127-1.567.712-1.842 1.511-.276.8-.068 1.682.537 2.285l6.102 6.093-1.415 8.451c-.144.85.225 1.705.948 2.203.397.272.864.411 1.331.411.384 0 .768-.094 1.118-.28L16 26.812l7.26 3.908c.349.186.734.28 1.117.28.467 0 .933-.139 1.332-.411.722-.498 1.091-1.353.948-2.203l-1.416-8.451 6.103-6.093c.604-.603.811-1.485.537-2.285zm-8.293 6.806c-.512.511-.744 1.229-.626 1.934l1.415 8.452-7.259-3.907c-.349-.188-.733-.281-1.118-.281-.384 0-.769.093-1.117.281l-7.26 3.907 1.416-8.452c.118-.705-.114-1.423-.626-1.934l-6.102-6.091 8.326-1.241c.761-.113 1.416-.588 1.744-1.267L16 2.251l3.62 7.513c.327.679.981 1.154 1.742 1.267l8.327 1.241-6.101 6.091z"/>
</svg>
